<svg aria-hidden="true" style="position: absolute; width: 0; height: 0; overflow: hidden;" version="1.1" xmlns="http://www.w3.org/2000/svg" xmlns:xlink="http://www.w3.org/1999/xlink">
<defs>
<symbol id="icon-burger-menu" viewBox="0 0 43 32">
<path fill="none" stroke="#fbfbfb" style="stroke: var(--color1, #fbfbfb)" stroke-linejoin="round" stroke-linecap="round" stroke-miterlimit="4" stroke-width="5.3333" d="M3.556 2.667h35.555M3.556 16h17.777M3.556 29.333h35.555"></path>
</symbol>
<symbol id="icon-cancel" viewBox="0 0 32 32">
<path fill="none" stroke="#fbfbfb" style="stroke: var(--color1, #fbfbfb)" stroke-linejoin="round" stroke-linecap="round" stroke-miterlimit="4" stroke-width="3.2" d="M24 8l-16 16M8 8l16 16"></path>
</symbol>
<symbol id="icon-GreenHarvest" viewBox="0 0 354 32">
<path fill="#fbfbfb" style="fill: var(--color1, #fbfbfb)" d="M16.838 31.793c-9.116 0-15.162-6.152-15.162-15.731 0-9.368 5.96-15.642 14.946-15.642 7.561 0 12.875 4.309 13.653 10.792h-6.264c-0.604-3.723-3.499-5.815-7.388-5.815-5.442 0-8.683 4.267-8.683 10.667 0 7.027 3.629 10.748 8.9 10.748 4.58 0 7.518-2.507 7.819-6.272v-0.42h-8.424v-4.685h14.257v3.849c-0.26 7.488-5.704 12.506-13.653 12.506zM34.266 31.373v-30.536h15.164c7.735 0 10.801 3.639 10.801 8.909 0 4.727-3.456 6.985-7.473 7.529v0.126c2.592 0.627 3.759 2.008 4.838 4.727 1.384 3.43 1.6 7.529 3.369 8.994v0.25h-6.912c-1.468-1.423-1.815-5.897-2.592-8.617-0.777-2.803-2.462-3.136-5.617-3.136h-5.528v11.753h-6.050zM40.316 14.767h8.467c3.543 0 5.184-2.008 5.184-4.602 0-2.842-2.029-4.474-5.184-4.474h-8.467v9.077zM64.248 31.373v-30.536h21.559v4.853h-15.511v7.277h13.999v4.853h-13.997v8.576h15.725v4.977h-21.775zM90.223 31.373v-30.536h21.559v4.853h-15.511v7.277h13.999v4.853h-13.999v8.576h15.729v4.977h-21.779zM116.198 31.373v-30.536h7.345l10.455 16.856c3.196 5.103 3.586 6.776 3.586 6.776h0.13l-0.087-23.633h6.048v30.536h-7.386l-10.844-17.359c-2.464-3.932-3.112-6.317-3.112-6.317h-0.087v23.676h-6.048zM148.226 31.373v-6.191h6.306v6.193h-6.306zM159.076 31.373v-30.536h6.048v12.215h14.473v-12.216h6.048v30.537h-6.050v-13.468h-14.475v13.468h-6.042zM188.23 31.373l12.098-30.536h6.566l12.271 30.536h-6.481l-2.549-7.027h-13.092l-2.549 7.027h-6.264zM198.771 19.494h9.636l-2.808-7.529c-1.944-5.564-1.988-6.568-1.988-6.568h-0.087s0 1.003-1.944 6.568l-2.808 7.529zM221.739 31.373v-30.536h15.164c7.735 0 10.801 3.639 10.801 8.909 0 4.727-3.456 6.985-7.475 7.529v0.126c2.594 0.627 3.759 2.008 4.84 4.727 1.384 3.43 1.598 7.529 3.369 8.994v0.25h-6.912c-1.468-1.423-1.815-5.897-2.592-8.617-0.777-2.803-2.462-3.136-5.617-3.136h-5.53v11.753h-6.048zM227.787 14.767h8.469c3.543 0 5.184-2.008 5.184-4.602 0-2.842-2.031-4.474-5.184-4.474h-8.469v9.077zM258.135 31.373l-11.578-30.536h6.481s6.264 17.109 6.912 19.2c1.037 3.347 1.512 5.062 1.512 5.062h0.087c-0.043 0 0.433-1.715 1.512-5.064 0.693-2.089 6.697-19.2 6.697-19.2h6.264l-11.147 30.537h-6.739zM278.498 31.373v-30.536h21.559v4.853h-15.511v7.277h13.997v4.853h-13.997v8.576h15.727v4.977h-21.775zM315.288 31.793c-8.036 0-12.875-4.226-12.875-10.502h6.912c-0.087 3.558 2.334 5.523 5.963 5.523 3.844 0 5.658-1.464 5.658-3.639 0-2.176-1.555-3.096-7.085-4.561-5.054-1.336-10.584-2.927-10.584-9.203 0-4.977 4.493-8.992 11.578-8.992 7.302 0 11.968 3.972 11.968 9.579h-6.697c-0.043-2.97-2.116-4.602-5.271-4.602-3.066 0-5.097 1.506-5.097 3.514 0 2.383 1.685 3.136 6.091 4.348 6.524 1.758 11.795 2.47 11.795 9.288 0 5.48-5.141 9.244-12.356 9.244zM337.493 31.373v-25.557h-9.547v-4.979h25.101v4.977h-9.506v25.559h-6.048z"></path>
</symbol>
<symbol id="icon-logo-box" viewBox="0 0 32 32">
<path fill="#fbfbfb" style="fill: var(--color1, #fbfbfb)" d="M29.082 0.314h-4.010c-1.237 0-2.24 0.982-2.24 2.195v3.93c0 1.213 1.003 2.195 2.24 2.195h4.010c1.238 0 2.24-0.982 2.24-2.195v-3.93c0-1.213-1.002-2.195-2.24-2.195zM6.73 23.040h-4.317c-1.333 0-2.413 0.982-2.413 2.195v3.93c0 1.213 1.080 2.195 2.413 2.195h4.317c1.333 0 2.413-0.982 2.413-2.195v-3.93c0-1.213-1.080-2.195-2.413-2.195zM6.25 11.582h-4.010c-1.237 0-2.24 0.982-2.24 2.195v3.928c0 1.213 1.003 2.197 2.24 2.197h4.010c1.237 0 2.24-0.984 2.24-2.197v-3.928c0-1.213-1.003-2.195-2.24-2.195zM17.766 22.978h-4.010c-1.237 0-2.24 0.984-2.24 2.195v3.93c0 1.213 1.003 2.195 2.24 2.195h4.010c1.237 0 2.24-0.982 2.24-2.195v-3.93c0-1.211-1.003-2.195-2.24-2.195zM6.25 0.086h-4.010c-1.237 0-2.24 0.982-2.24 2.195v3.93c0 1.213 1.003 2.195 2.24 2.195h4.010c1.237 0 2.24-0.982 2.24-2.195v-3.93c0-1.213-1.003-2.195-2.24-2.195zM18.075 11.696h-4.008c-1.238 0-2.24 0.984-2.24 2.197v3.93c0 1.213 1.002 2.195 2.24 2.195h4.008c1.238 0 2.24-0.982 2.24-2.195v-3.93c0-1.213-1.002-2.195-2.24-2.195zM29.333 22.978h-4.010c-1.237 0-2.24 0.984-2.24 2.195v3.93c0 1.213 1.003 2.195 2.24 2.195h4.010c1.238 0 2.24-0.982 2.24-2.195v-3.93c0-1.211-1.002-2.195-2.24-2.195zM17.59 0.224h-4.010c-1.237 0-2.24 0.982-2.24 2.195v3.93c0 1.211 1.003 2.195 2.24 2.195h4.010c1.237 0 2.24-0.984 2.24-2.197v-3.928c0-1.213-1.003-2.195-2.24-2.195zM29.043 11.926h-4.010c-1.237 0-2.24 0.982-2.24 2.195v3.928c0 1.213 1.003 2.197 2.24 2.197h4.010c1.238 0 2.24-0.984 2.24-2.197v-3.928c0-1.213-1.002-2.195-2.24-2.195z"></path>
</symbol>
</defs>
</svg>
