<svg xmlns="http://www.w3.org/2000/svg" width="188" height="17" fill="none"><path fill="#FBFBFB" d="M8.945 16.89C4.102 16.89.89 13.622.89 8.533.89 3.556 4.056.223 8.83.223c4.017 0 6.84 2.289 7.253 5.733h-3.328c-.321-1.978-1.859-3.089-3.925-3.089-2.891 0-4.613 2.267-4.613 5.667 0 3.733 1.928 5.71 4.728 5.71 2.433 0 3.994-1.332 4.154-3.332v-.223H8.624V8.2h7.574v2.045c-.138 3.978-3.03 6.644-7.253 6.644ZM18.204 16.667V.445h8.056c4.109 0 5.738 1.933 5.738 4.733 0 2.511-1.836 3.711-3.97 4v.067c1.377.333 1.997 1.067 2.57 2.511.735 1.822.85 4 1.79 4.778v.133h-3.672c-.78-.756-.964-3.133-1.377-4.578-.413-1.489-1.308-1.666-2.984-1.666h-2.937v6.244h-3.214Zm3.214-8.822h4.498c1.882 0 2.754-1.067 2.754-2.445 0-1.51-1.078-2.377-2.754-2.377h-4.498v4.822ZM34.132 16.667V.445h11.453v2.578h-8.24v3.866h7.437v2.578h-7.436v4.556H45.7v2.644H34.132ZM47.931 16.667V.445h11.453v2.578h-8.24v3.866h7.437v2.578h-7.437v4.556H59.5v2.644H47.93ZM61.73 16.667V.445h3.902L71.186 9.4c1.698 2.711 1.905 3.6 1.905 3.6h.069L73.114.445h3.213v16.222h-3.924l-5.761-9.222c-1.309-2.089-1.653-3.356-1.653-3.356h-.046v12.578H61.73ZM78.745 16.667v-3.289h3.35v3.29h-3.35ZM84.509 16.667V.445h3.213v6.489h7.689V.444h3.213v16.223H95.41V9.512h-7.69v7.155H84.51ZM99.997 16.667 106.424.445h3.488l6.519 16.222h-3.443l-1.354-3.733h-6.955l-1.354 3.733h-3.328Zm5.6-6.311h5.119l-1.492-4c-1.033-2.956-1.056-3.489-1.056-3.489h-.046s0 .533-1.033 3.489l-1.492 4ZM117.799 16.667V.445h8.056c4.109 0 5.738 1.933 5.738 4.733 0 2.511-1.836 3.711-3.971 4v.067c1.378.333 1.997 1.067 2.571 2.511.735 1.822.849 4 1.79 4.778v.133h-3.672c-.78-.756-.964-3.133-1.377-4.578-.413-1.489-1.308-1.666-2.984-1.666h-2.938v6.244h-3.213Zm3.213-8.822h4.499c1.882 0 2.754-1.067 2.754-2.445 0-1.51-1.079-2.377-2.754-2.377h-4.499v4.822ZM137.134 16.667 130.983.445h3.443s3.328 9.089 3.672 10.2c.551 1.778.803 2.689.803 2.689h.046c-.023 0 .23-.911.803-2.69.368-1.11 3.558-10.2 3.558-10.2h3.328l-5.922 16.223h-3.58ZM147.952 16.667V.445h11.453v2.578h-8.24v3.866h7.436v2.578h-7.436v4.556h8.355v2.644h-11.568ZM167.497 16.89c-4.269 0-6.84-2.245-6.84-5.579h3.672c-.046 1.89 1.24 2.934 3.168 2.934 2.042 0 3.006-.778 3.006-1.933 0-1.156-.826-1.645-3.764-2.423-2.685-.71-5.623-1.555-5.623-4.889 0-2.644 2.387-4.777 6.151-4.777 3.879 0 6.358 2.11 6.358 5.089h-3.558c-.023-1.578-1.124-2.445-2.8-2.445-1.629 0-2.708.8-2.708 1.867 0 1.266.895 1.666 3.236 2.31 3.466.934 6.266 1.312 6.266 4.934 0 2.911-2.731 4.911-6.564 4.911ZM179.293 16.667V3.09h-5.072V.445h13.335v2.644h-5.05v13.578h-3.213Z"/></svg>